<svg width="24" height="30" viewBox="0 0 24 30" fill="none" xmlns="http://www.w3.org/2000/svg">
<path d="M9 15C9 15.5936 9.17611 16.1739 9.50605 16.6674C9.83593 17.1608 10.3049 17.5453 10.8534 17.7722C11.4019 17.9991 12.0054 18.0582 12.5875 17.9419C13.1696 17.8256 13.7042 17.5394 14.1235 17.1192C14.5428 16.699 14.8281 16.1639 14.9431 15.5815C15.0582 14.9992 14.9979 14.3958 14.7699 13.8477C14.5419 13.2997 14.1565 12.8316 13.6623 12.5027C13.1682 12.1737 12.5875 11.9989 11.9939 12C11.1993 12.0016 10.4379 12.3184 9.87656 12.8809C9.31524 13.4433 9 14.2054 9 15Z" fill="#ECB99D"/>
<path d="M12 24C11.4067 24 10.8266 24.1759 10.3333 24.5056C9.83992 24.8353 9.45545 25.3038 9.22838 25.8519C9.00132 26.4001 8.94186 27.0033 9.05767 27.5853C9.17342 28.1672 9.45915 28.7017 9.87867 29.1213C10.2982 29.5409 10.8328 29.8266 11.4147 29.9424C11.9967 30.0581 12.5999 29.9987 13.1481 29.7716C13.6963 29.5446 14.1648 29.16 14.4944 28.6667C14.8241 28.1733 15 27.5933 15 27C15 26.2043 14.684 25.4413 14.1213 24.8787C13.5587 24.3161 12.7957 24 12 24Z" fill="#ECB99D"/>
<path d="M21 12C20.4066 12 19.8266 12.1759 19.3333 12.5056C18.84 12.8353 18.4554 13.3038 18.2284 13.852C18.0013 14.4001 17.9419 15.0033 18.0576 15.5853C18.1734 16.1672 18.4591 16.7018 18.8787 17.1213C19.2982 17.5409 19.8328 17.8266 20.4147 17.9424C20.9967 18.0581 21.5999 17.9987 22.148 17.7716C22.6962 17.5446 23.1647 17.1601 23.4944 16.6667C23.824 16.1734 24 15.5934 24 15C24 14.2044 23.6839 13.4413 23.1213 12.8787C22.5587 12.3161 21.7956 12 21 12Z" fill="#ECB99D"/>
<path d="M11.9939 5.99999C12.5875 6.00121 13.1682 5.82625 13.6623 5.49734C14.1565 5.16843 14.5419 4.70034 14.7699 4.15226C14.9979 3.60418 15.0582 3.00078 14.9431 2.41846C14.8281 1.83613 14.5428 1.30099 14.1235 0.880808C13.7042 0.460687 13.1696 0.17435 12.5875 0.0581153C12.0054 -0.0581801 11.4019 0.000908819 10.8534 0.227791C10.3049 0.454674 9.83593 0.839148 9.50605 1.33263C9.17611 1.82611 9 2.40637 9 2.99999C9 3.79457 9.31524 4.55671 9.87656 5.11918C10.4379 5.68159 11.1993 5.99835 11.9939 5.99999Z" fill="#ECB99D"/>
<path d="M6 15C6 14.4066 5.82407 13.8266 5.49443 13.3332C5.16479 12.8399 4.69627 12.4554 4.14806 12.2284C3.59986 12.0013 2.9967 11.9419 2.41473 12.0576C1.83276 12.1734 1.29822 12.4591 0.878645 12.8787C0.459128 13.2982 0.173395 13.8327 0.0576455 14.4147C-0.0581044 14.9967 0.0012895 15.5999 0.228356 16.148C0.455423 16.6962 0.83996 17.1647 1.33326 17.4944C1.82663 17.824 2.40665 18 2.99998 18C3.79565 18 4.55871 17.6839 5.12137 17.1213C5.68396 16.5587 6 15.7956 6 15Z" fill="#ECB99D"/>
<path d="M18.9797 18.9574C17.7277 17.9009 17.0249 16.4718 17.0249 14.9822C17.0249 13.4926 17.7277 12.0634 18.9797 11.0069C19.4679 10.5959 19.7998 10.0729 19.9338 9.50381C20.0677 8.93468 19.9975 8.3451 19.7322 7.80936C19.4669 7.27368 19.0183 6.81591 18.443 6.49391C17.8678 6.17184 17.1917 6 16.5 6C15.8083 6 15.1322 6.17184 14.557 6.49391C13.9817 6.81591 13.5331 7.27368 13.2678 7.80936C13.0025 8.3451 12.9323 8.93468 13.0662 9.50381C13.2002 10.0729 13.5321 10.5959 14.0202 11.0069C14.6492 11.5295 15.1484 12.1515 15.4891 12.8369C15.8298 13.5223 16.0052 14.2575 16.0052 15C16.0052 15.7425 15.8298 16.4777 15.4891 17.1631C15.1484 17.8485 14.6492 18.4704 14.0202 18.9931C13.5321 19.404 13.2002 19.9271 13.0662 20.4962C12.9323 21.0653 13.0025 21.6549 13.2678 22.1906C13.5331 22.7263 13.9817 23.1841 14.557 23.5061C15.1322 23.8282 15.8083 24 16.5 24C17.1917 24 17.8678 23.8282 18.443 23.5061C19.0183 23.1841 19.4669 22.7263 19.7322 22.1906C19.9975 21.6549 20.0677 21.0653 19.9338 20.4962C19.7998 19.9271 19.4679 19.404 18.9797 18.9931V18.9574Z" fill="white"/>
<path d="M10.9717 21.0343C10.968 20.2628 10.6079 19.5227 9.96767 18.9703C8.71814 17.9128 8.01679 16.4822 8.01679 14.9911C8.01679 13.5 8.71814 12.0695 9.96767 11.0119C10.4548 10.6005 10.7861 10.0769 10.9197 9.5073C11.0535 8.93766 10.9835 8.34744 10.7187 7.81122C10.4539 7.27495 10.0062 6.81678 9.43207 6.4944C8.85799 6.17208 8.18316 6 7.49292 6C6.80268 6 6.12792 6.17208 5.55377 6.4944C4.9797 6.81678 4.53198 7.27495 4.26718 7.81122C4.00246 8.34744 3.93246 8.93766 4.06609 9.5073C4.1998 10.0769 4.53106 10.6005 5.01817 11.0119C5.64477 11.535 6.14213 12.1572 6.48152 12.8427C6.82092 13.5282 6.99564 14.2634 6.99564 15.006C6.99564 15.7486 6.82092 16.4838 6.48152 17.1693C6.14213 17.8548 5.64477 18.4771 5.01817 19.0001C4.61605 19.3436 4.32057 19.7652 4.15787 20.2275C3.99517 20.6898 3.97014 21.1786 4.08511 21.651C4.20008 22.1234 4.45145 22.5647 4.81707 22.936C5.1827 23.3073 5.65128 23.5972 6.18158 23.7802C6.71189 23.9631 7.28751 24.0336 7.85777 23.9852C8.42802 23.9367 8.97537 23.771 9.45151 23.5026C9.92765 23.2342 10.318 22.8714 10.588 22.4461C10.8581 22.0208 10.9996 21.5462 11 21.064L10.9717 21.0343Z" fill="white"/>
</svg>
